<svg xmlns="http://www.w3.org/2000/svg" width="156" height="30" viewBox="0 0 156 30" role="img" aria-label="Repositories"><title>Repositories</title><rect x="1" y="1" width="154" height="28" fill="#ffffff" stroke="#c3d8ef" /><path d="M3 27H153V3" fill="none" stroke="#e6effa" stroke-width="2" /><g fill="#789bc7" aria-label="Repositories"><title>Repositories</title><path d="M19.666666666666668 11.666666666666668H24.666666666666664V13.333333333333334H26.333333333333332V20.0H24.666666666666664V13.333333333333334H19.666666666666668V20.0H18.0V8.333333333333334H24.666666666666664V10.0H26.333333333333332V11.666666666666668H24.666666666666664V10.0H19.666666666666668ZM29.666666666666668 15.0H34.666666666666664V13.333333333333334H29.666666666666668V11.666666666666668H34.666666666666664V13.333333333333334H36.33333333333333V16.666666666666668H29.666666666666668V18.333333333333332H36.33333333333333V20.0H29.666666666666668V18.333333333333332H28.0V13.333333333333334H29.666666666666668ZM39.666666666666664 16.666666666666668H44.666666666666664V13.333333333333334H41.333333333333336V11.666666666666668H44.666666666666664V13.333333333333334H46.33333333333333V16.666666666666668H44.666666666666664V18.333333333333332H39.666666666666664V21.666666666666668H38.0V11.666666666666668H39.666666666666664V13.333333333333334H41.333333333333336V15.0H39.666666666666664ZM49.666666666666664 18.333333333333332H48.0V13.333333333333334H49.666666666666664V11.666666666666668H54.666666666666664V13.333333333333334H56.33333333333333V18.333333333333332H54.666666666666664V20.0H49.666666666666664V18.333333333333332H54.666666666666664V13.333333333333334H49.666666666666664ZM58.0 20.0V18.333333333333332H64.66666666666667V16.666666666666668H59.666666666666664V15.0H58.0V13.333333333333334H59.666666666666664V11.666666666666668H66.33333333333333V13.333333333333334H59.666666666666664V15.0H64.66666666666667V16.666666666666668H66.33333333333333V18.333333333333332H64.66666666666667V20.0ZM70.5 10.0V8.333333333333334H72.16666666666667V10.0ZM72.16666666666667 20.0V18.333333333333332H70.5V13.333333333333334H68.83333333333333V11.666666666666668H72.16666666666667V18.333333333333332H75.5V20.0ZM82.16666666666667 20.0V18.333333333333332H80.5V13.333333333333334H78.83333333333333V11.666666666666668H80.5V8.333333333333334H82.16666666666667V11.666666666666668H83.83333333333333V13.333333333333334H82.16666666666667V18.333333333333332H85.5V20.0ZM89.66666666666667 18.333333333333332H88.0V13.333333333333334H89.66666666666667V11.666666666666668H94.66666666666667V13.333333333333334H96.33333333333333V18.333333333333332H94.66666666666667V20.0H89.66666666666667V18.333333333333332H94.66666666666667V13.333333333333334H89.66666666666667ZM98.0 20.0V11.666666666666668H99.66666666666667V13.333333333333334H101.33333333333333V11.666666666666668H104.66666666666667V13.333333333333334H106.33333333333333V15.0H104.66666666666667V13.333333333333334H101.33333333333333V15.0H99.66666666666667V20.0ZM110.5 10.0V8.333333333333334H112.16666666666667V10.0ZM112.16666666666667 20.0V18.333333333333332H110.5V13.333333333333334H108.83333333333333V11.666666666666668H112.16666666666667V18.333333333333332H115.5V20.0ZM119.66666666666667 15.0H124.66666666666667V13.333333333333334H119.66666666666667V11.666666666666668H124.66666666666667V13.333333333333334H126.33333333333333V16.666666666666668H119.66666666666667V18.333333333333332H126.33333333333333V20.0H119.66666666666667V18.333333333333332H118.0V13.333333333333334H119.66666666666667ZM128.0 20.0V18.333333333333332H134.66666666666666V16.666666666666668H129.66666666666666V15.0H128.0V13.333333333333334H129.66666666666666V11.666666666666668H136.33333333333334V13.333333333333334H129.66666666666666V15.0H134.66666666666666V16.666666666666668H136.33333333333334V18.333333333333332H134.66666666666666V20.0Z" /></g></svg>